<svg width="15" height="15" viewBox="0 0 15 15" fill="none" xmlns="http://www.w3.org/2000/svg">
<path fill-rule="evenodd" clip-rule="evenodd" d="M1.49999 6.74996C1.49999 3.85049 3.85049 1.49999 6.74996 1.49999C9.64944 1.49999 11.9999 3.85049 11.9999 6.74996C11.9999 9.64944 9.64944 11.9999 6.74996 11.9999C3.85049 11.9999 1.49999 9.64944 1.49999 6.74996ZM6.74996 0C3.02206 0 0 3.02206 0 6.74996C0 10.4779 3.02206 13.4999 6.74996 13.4999C8.3437 13.4999 9.80844 12.9476 10.9632 12.0239L13.7196 14.7802C14.0125 15.0731 14.4874 15.0731 14.7802 14.7802C15.0731 14.4874 15.0731 14.0125 14.7802 13.7196L12.0239 10.9632C12.9476 9.80844 13.4999 8.3437 13.4999 6.74996C13.4999 3.02206 10.4779 0 6.74996 0Z" fill="white"/>
</svg>
