<svg width="15" height="15" viewBox="0 0 15 15" fill="none" xmlns="http://www.w3.org/2000/svg">
<g clip-path="url(#clip0_103_601)">
<path d="M14.8213 7.6403C14.8213 7.02576 14.7714 6.5773 14.6635 6.11224H7.646V8.88598H11.7651C11.6821 9.5753 11.2336 10.6134 10.237 11.3109L10.2231 11.4038L12.4419 13.1227L12.5956 13.138C14.0074 11.8342 14.8213 9.91577 14.8213 7.6403Z" fill="#4285F4"/>
<path d="M7.646 14.9484C9.66401 14.9484 11.3582 14.284 12.5956 13.138L10.237 11.3109C9.6059 11.7511 8.7588 12.0584 7.646 12.0584C5.66949 12.0584 3.99195 10.7546 3.39396 8.95245L3.3063 8.9599L0.999166 10.7454L0.968994 10.8293C2.19808 13.2709 4.72272 14.9484 7.646 14.9484Z" fill="#34A853"/>
<path d="M3.39395 8.9525C3.23616 8.48744 3.14484 7.98912 3.14484 7.47425C3.14484 6.95933 3.23616 6.46107 3.38565 5.99601L3.38147 5.89696L1.04542 4.08276L0.968986 4.11912C0.462421 5.13231 0.171753 6.27007 0.171753 7.47425C0.171753 8.67843 0.462421 9.81614 0.968986 10.8293L3.39395 8.9525Z" fill="#FBBC05"/>
<path d="M7.646 2.89002C9.04947 2.89002 9.99619 3.49626 10.536 4.00288L12.6454 1.9433C11.3499 0.739122 9.66401 0 7.646 0C4.72271 0 2.19808 1.67754 0.968994 4.1191L3.38565 5.99599C3.99195 4.19387 5.66949 2.89002 7.646 2.89002Z" fill="#EB4335"/>
</g>
<defs>
<clipPath id="clip0_103_601">
<rect width="15" height="15" fill="white"/>
</clipPath>
</defs>
</svg>
