<svg width="19" height="20" viewBox="0 0 19 20" fill="none" xmlns="http://www.w3.org/2000/svg">
<g clip-path="url(#clip0_103_70)">
<path d="M18.9576 7.67797C18.856 7.34876 18.5857 7.10884 18.2603 7.05914L12.7423 6.21523L10.2746 0.951457C10.129 0.641099 9.82872 0.44458 9.49997 0.44458C9.17115 0.44458 8.87084 0.641099 8.72538 0.951457L6.25777 6.21517L0.7396 7.05908C0.41424 7.10884 0.143874 7.34876 0.0422929 7.67791C-0.0592885 8.00712 0.0254203 8.36846 0.260889 8.61002L4.25384 12.7066L3.31087 18.4922C3.2553 18.8334 3.38849 19.1781 3.65448 19.3815C3.80495 19.4967 3.98318 19.5552 4.16227 19.5552C4.29973 19.5552 4.43777 19.5207 4.56417 19.4508L9.49991 16.7194L14.4356 19.4508C14.5627 19.5211 14.702 19.5547 14.8399 19.5552C15.3164 19.5545 15.7025 19.1477 15.7025 18.646C15.7025 18.5761 15.695 18.5081 15.6808 18.4428L14.746 12.7067L18.739 8.61002C18.9745 8.36846 19.0592 8.00712 18.9576 7.67797Z" fill="#F75C1E"/>
</g>
<defs>
<clipPath id="clip0_103_70">
<rect width="19" height="20" fill="white"/>
</clipPath>
</defs>
</svg>
