<svg width="23" height="21" viewBox="0 0 23 21" fill="none" xmlns="http://www.w3.org/2000/svg">
<path d="M11.4999 0C6.77058 0 2.92309 3.51434 2.92309 7.8341C2.92309 14.2703 10.6462 20.5546 10.9751 20.8191C11.125 20.9396 11.3124 21 11.4999 21C11.6874 21 11.8748 20.9397 12.0248 20.8191C12.3535 20.5547 20.0767 14.2703 20.0767 7.8341C20.0767 3.51434 16.2292 0 11.4999 0ZM11.4999 19.281C9.79239 17.7702 4.5114 12.7032 4.5114 7.8341C4.5114 4.31404 7.64643 1.4502 11.4999 1.4502C15.3533 1.4502 18.4884 4.31404 18.4884 7.8341C18.4884 12.7031 13.2074 17.7702 11.4999 19.281Z" fill="black" fill-opacity="0.47"/>
<path d="M11.5 4.18465C9.31049 4.18465 7.52927 5.82179 7.52927 7.83411C7.52927 9.84649 9.31049 11.4836 11.5 11.4836C13.6895 11.4836 15.4707 9.84649 15.4707 7.83411C15.4707 5.82179 13.6895 4.18465 11.5 4.18465ZM11.5 10.0334C10.1863 10.0334 9.1175 9.0468 9.1175 7.83411C9.1175 6.62149 10.1863 5.63484 11.5 5.63484C12.8137 5.63484 13.8824 6.62142 13.8824 7.83411C13.8824 9.0468 12.8137 10.0334 11.5 10.0334Z" fill="black" fill-opacity="0.47"/>
</svg>
